<?xml version="1.0" encoding="utf-8"?>
<!-- Generator: Adobe Illustrator 24.1.0, SVG Export Plug-In . SVG Version: 6.00 Build 0)  -->
<svg version="1.1" id="Layer_1" xmlns="http://www.w3.org/2000/svg" xmlns:xlink="http://www.w3.org/1999/xlink" x="0px" y="0px"
	 viewBox="0 0 158.74 82.2" style="enable-background:new 0 0 158.74 82.2;" xml:space="preserve">
<style type="text/css">
	.st0{fill:#EB611C;}
</style>
<g>
	<path class="st0" d="M24.28,28.61v18.28h-5.73V28.61H24.28z"/>
	<path class="st0" d="M31.94,28.61l-0.1,1.68c0.4-0.67,0.9-1.18,1.48-1.51c0.58-0.34,1.26-0.5,2.02-0.5c0.96,0,1.74,0.23,2.34,0.68
		c0.61,0.45,1,1.02,1.17,1.7c0.17,0.68,0.26,1.83,0.26,3.42v12.81h-5.57V34.23c0-1.26-0.04-2.03-0.12-2.3
		c-0.08-0.28-0.31-0.41-0.69-0.41c-0.4,0-0.64,0.16-0.74,0.48c-0.1,0.32-0.15,1.16-0.15,2.54v12.36h-5.57V28.61H31.94z"/>
	<path class="st0" d="M46.7,28.61l-0.1,1.68c0.4-0.67,0.9-1.18,1.48-1.51c0.58-0.34,1.26-0.5,2.02-0.5c0.96,0,1.74,0.23,2.34,0.68
		c0.61,0.45,1,1.02,1.17,1.7c0.17,0.68,0.26,1.83,0.26,3.42v12.81h-5.57V34.23c0-1.26-0.04-2.03-0.12-2.3
		c-0.08-0.28-0.31-0.41-0.69-0.41c-0.4,0-0.64,0.16-0.74,0.48c-0.1,0.32-0.15,1.16-0.15,2.54v12.36h-5.57V28.61H46.7z"/>
	<path class="st0" d="M68.38,35.03v4.48c0,1.64-0.08,2.85-0.25,3.62c-0.17,0.77-0.52,1.48-1.06,2.15c-0.54,0.67-1.24,1.16-2.09,1.47
		c-0.85,0.32-1.83,0.48-2.93,0.48c-1.23,0-2.27-0.14-3.13-0.41s-1.52-0.68-1.99-1.23c-0.47-0.55-0.81-1.21-1.01-1.98
		c-0.2-0.78-0.3-1.94-0.3-3.49v-4.68c0-1.7,0.18-3.03,0.55-3.98c0.37-0.96,1.03-1.72,1.98-2.3c0.96-0.58,2.18-0.87,3.66-0.87
		c1.25,0,2.32,0.19,3.22,0.56c0.9,0.37,1.59,0.86,2.07,1.45c0.49,0.6,0.82,1.21,1,1.85C68.29,32.77,68.38,33.73,68.38,35.03z
		 M62.82,33.65c0-0.94-0.05-1.53-0.15-1.77c-0.1-0.24-0.32-0.37-0.65-0.37c-0.33,0-0.55,0.12-0.66,0.37
		c-0.11,0.24-0.17,0.83-0.17,1.77v8.25c0,0.86,0.06,1.43,0.17,1.69c0.11,0.26,0.33,0.39,0.65,0.39c0.33,0,0.55-0.12,0.65-0.36
		c0.11-0.24,0.16-0.75,0.16-1.54V33.65z"/>
	<path class="st0" d="M73.92,49.26v4.55h-4.2v-4.55H73.92z"/>
	<path class="st0" d="M86.79,34.45h-4.93v-0.99c0-0.84-0.05-1.38-0.14-1.61c-0.1-0.22-0.34-0.34-0.72-0.34
		c-0.31,0-0.55,0.1-0.7,0.31c-0.16,0.21-0.23,0.52-0.23,0.93c0,0.56,0.04,0.97,0.12,1.23c0.08,0.26,0.31,0.55,0.7,0.86
		c0.39,0.31,1.19,0.77,2.4,1.36c1.62,0.79,2.68,1.53,3.18,2.23c0.5,0.7,0.76,1.71,0.76,3.04c0,1.49-0.19,2.61-0.58,3.37
		c-0.39,0.76-1.03,1.34-1.94,1.75c-0.9,0.41-2,0.61-3.27,0.61c-1.41,0-2.62-0.22-3.63-0.66c-1.01-0.44-1.7-1.04-2.07-1.79
		c-0.38-0.75-0.56-1.89-0.56-3.42v-0.88h4.93v1.16c0,0.98,0.06,1.62,0.19,1.92c0.12,0.29,0.37,0.44,0.74,0.44
		c0.39,0,0.67-0.1,0.83-0.3c0.16-0.2,0.23-0.61,0.23-1.25c0-0.87-0.1-1.42-0.3-1.64c-0.21-0.22-1.29-0.87-3.24-1.96
		c-1.64-0.92-2.63-1.75-2.99-2.5c-0.36-0.75-0.54-1.64-0.54-2.67c0-1.46,0.19-2.54,0.58-3.23c0.39-0.69,1.04-1.23,1.96-1.61
		c0.92-0.38,2-0.56,3.22-0.56c1.21,0,2.24,0.15,3.09,0.46c0.85,0.31,1.5,0.71,1.96,1.22c0.45,0.51,0.73,0.97,0.83,1.41
		c0.1,0.43,0.14,1.11,0.14,2.03V34.45z"/>
	<path class="st0" d="M94.37,28.61l-0.1,1.62c0.5-0.65,1.04-1.14,1.64-1.46c0.6-0.32,1.25-0.48,1.96-0.48c0.86,0,1.61,0.23,2.24,0.7
		c0.63,0.46,1.02,1,1.18,1.61c0.16,0.61,0.23,1.64,0.23,3.09v7.7c0,1.66-0.1,2.85-0.3,3.55c-0.2,0.7-0.6,1.26-1.21,1.68
		c-0.61,0.42-1.35,0.63-2.21,0.63c-0.69,0-1.33-0.16-1.91-0.48c-0.59-0.32-1.13-0.8-1.61-1.44v4.19H88.7V28.61H94.37z M95.95,33.92
		c0-1.13-0.04-1.81-0.12-2.05c-0.08-0.24-0.31-0.36-0.69-0.36c-0.37,0-0.6,0.14-0.71,0.41c-0.11,0.28-0.16,0.94-0.16,2v7.58
		c0,1.1,0.06,1.79,0.17,2.07c0.11,0.28,0.35,0.41,0.72,0.41c0.36,0,0.58-0.13,0.67-0.38c0.09-0.25,0.13-0.87,0.13-1.84V33.92z"/>
	<path class="st0" d="M108.32,35.69h-5.22v-1.23c0-1.41,0.16-2.51,0.49-3.27c0.33-0.77,0.98-1.44,1.96-2.03
		c0.98-0.59,2.26-0.88,3.83-0.88c1.88,0,3.3,0.33,4.26,1c0.96,0.67,1.53,1.48,1.72,2.45c0.19,0.97,0.29,2.96,0.29,5.99v9.18h-5.41
		v-1.63c-0.34,0.65-0.78,1.14-1.32,1.47c-0.54,0.33-1.18,0.49-1.92,0.49c-0.97,0-1.87-0.27-2.68-0.82
		c-0.81-0.55-1.22-1.74-1.22-3.59v-1.5c0-1.37,0.22-2.3,0.65-2.8c0.43-0.5,1.5-1.07,3.21-1.74c1.83-0.72,2.81-1.2,2.93-1.45
		c0.13-0.25,0.19-0.75,0.19-1.52c0-0.96-0.07-1.58-0.21-1.87c-0.14-0.29-0.38-0.43-0.71-0.43c-0.38,0-0.61,0.12-0.7,0.37
		c-0.09,0.24-0.14,0.87-0.14,1.89V35.69z M110.09,38.19c-0.89,0.65-1.41,1.2-1.55,1.64c-0.14,0.44-0.21,1.07-0.21,1.9
		c0,0.95,0.06,1.56,0.19,1.83c0.12,0.28,0.37,0.41,0.74,0.41c0.35,0,0.58-0.11,0.68-0.32c0.11-0.22,0.16-0.78,0.16-1.7V38.19z"/>
	<path class="st0" d="M129.87,35.51h-5.25V33.4c0-0.73-0.06-1.23-0.18-1.49c-0.12-0.26-0.34-0.39-0.66-0.39
		c-0.32,0-0.54,0.12-0.65,0.34c-0.11,0.23-0.17,0.74-0.17,1.54v8.62c0,0.65,0.08,1.14,0.25,1.47c0.17,0.33,0.41,0.49,0.73,0.49
		c0.38,0,0.63-0.17,0.77-0.51c0.13-0.34,0.2-0.98,0.2-1.93v-2.18h4.96c-0.01,1.46-0.06,2.56-0.16,3.29s-0.4,1.48-0.92,2.25
		c-0.52,0.77-1.2,1.35-2.03,1.74c-0.84,0.39-1.87,0.59-3.1,0.59c-1.57,0-2.82-0.27-3.73-0.81c-0.92-0.54-1.57-1.29-1.95-2.26
		c-0.38-0.97-0.57-2.34-0.57-4.13v-5.19c0-1.55,0.16-2.72,0.47-3.51c0.31-0.79,0.98-1.49,2-2.11s2.26-0.93,3.72-0.93
		c1.45,0,2.69,0.31,3.72,0.92c1.03,0.62,1.71,1.39,2.05,2.33C129.7,32.46,129.87,33.79,129.87,35.51z"/>
	<path class="st0" d="M144.13,38.07h-7.21v3.95c0,0.83,0.06,1.36,0.18,1.6c0.12,0.24,0.35,0.36,0.69,0.36c0.42,0,0.7-0.16,0.85-0.48
		c0.14-0.32,0.21-0.93,0.21-1.84v-2.41h5.28v1.35c0,1.13-0.07,2-0.21,2.6s-0.47,1.25-1,1.94c-0.52,0.69-1.19,1.21-1.99,1.55
		c-0.8,0.34-1.81,0.52-3.02,0.52c-1.18,0-2.21-0.17-3.11-0.51c-0.9-0.34-1.6-0.81-2.1-1.4c-0.5-0.59-0.85-1.24-1.04-1.96
		c-0.19-0.71-0.29-1.75-0.29-3.11v-5.33c0-1.6,0.22-2.86,0.65-3.78c0.43-0.92,1.14-1.63,2.12-2.12c0.98-0.49,2.11-0.74,3.39-0.74
		c1.56,0,2.85,0.3,3.86,0.89c1.01,0.59,1.73,1.38,2.14,2.36c0.41,0.98,0.61,2.35,0.61,4.13V38.07z M138.55,35.09v-1.34
		c0-0.95-0.05-1.56-0.15-1.83c-0.1-0.28-0.31-0.41-0.62-0.41c-0.39,0-0.62,0.12-0.72,0.35c-0.09,0.23-0.14,0.87-0.14,1.89v1.34
		H138.55z"/>
</g>
<g>
	<path class="st0" d="M78.31,56.98c0,0.29-0.04,0.54-0.13,0.76s-0.22,0.39-0.38,0.53c-0.17,0.14-0.37,0.25-0.6,0.32
		s-0.5,0.11-0.8,0.11c-0.13,0-0.29,0-0.47-0.02c-0.18-0.01-0.36-0.03-0.53-0.07v-3.25c0.17-0.03,0.35-0.05,0.54-0.07
		c0.19-0.01,0.35-0.02,0.48-0.02c0.29,0,0.54,0.03,0.78,0.1c0.23,0.06,0.43,0.17,0.6,0.3c0.17,0.14,0.29,0.31,0.38,0.53
		S78.31,56.68,78.31,56.98z M76.15,58.04c0.04,0,0.08,0.01,0.12,0.01c0.05,0,0.1,0,0.17,0c0.38,0,0.65-0.09,0.83-0.28
		c0.18-0.19,0.27-0.45,0.27-0.78c0-0.35-0.09-0.61-0.26-0.79s-0.45-0.27-0.82-0.27c-0.05,0-0.1,0-0.16,0s-0.11,0.01-0.15,0.01V58.04
		z"/>
	<path class="st0" d="M78.94,58.65v-3.33h2.25v0.63h-1.5v0.65h1.33v0.62h-1.33v0.8h1.61v0.63H78.94z"/>
	<path class="st0" d="M82.76,58.08c0.11,0,0.19-0.01,0.26-0.03s0.12-0.04,0.17-0.07c0.04-0.03,0.07-0.07,0.09-0.11
		c0.02-0.04,0.02-0.09,0.02-0.14c0-0.11-0.05-0.2-0.15-0.27c-0.1-0.07-0.28-0.15-0.53-0.23c-0.11-0.04-0.22-0.08-0.33-0.13
		c-0.11-0.05-0.21-0.11-0.29-0.19s-0.16-0.17-0.21-0.27s-0.08-0.24-0.08-0.39c0-0.15,0.03-0.29,0.09-0.42
		c0.06-0.12,0.14-0.23,0.25-0.31c0.11-0.09,0.23-0.15,0.39-0.2c0.15-0.05,0.32-0.07,0.51-0.07c0.22,0,0.42,0.02,0.58,0.07
		c0.16,0.05,0.3,0.1,0.4,0.16l-0.22,0.59c-0.09-0.05-0.2-0.09-0.31-0.13c-0.11-0.04-0.25-0.06-0.41-0.06
		c-0.18,0-0.31,0.02-0.39,0.07c-0.08,0.05-0.12,0.13-0.12,0.23c0,0.06,0.01,0.11,0.04,0.15c0.03,0.04,0.07,0.08,0.12,0.11
		c0.05,0.03,0.11,0.06,0.18,0.09c0.07,0.03,0.15,0.06,0.23,0.08c0.17,0.06,0.32,0.13,0.45,0.19c0.13,0.06,0.24,0.14,0.32,0.22
		c0.08,0.08,0.15,0.18,0.19,0.29c0.04,0.11,0.06,0.25,0.06,0.41c0,0.31-0.11,0.55-0.33,0.72c-0.22,0.17-0.55,0.26-0.99,0.26
		c-0.15,0-0.28-0.01-0.4-0.03c-0.12-0.02-0.22-0.04-0.31-0.07c-0.09-0.03-0.17-0.05-0.24-0.08c-0.07-0.03-0.12-0.06-0.17-0.08
		l0.21-0.6c0.1,0.05,0.22,0.1,0.37,0.15S82.55,58.08,82.76,58.08z"/>
	<path class="st0" d="M84.66,55.31h0.75v3.33h-0.75V55.31z"/>
	<path class="st0" d="M87.8,55.89c-0.35,0-0.6,0.1-0.76,0.29c-0.16,0.19-0.23,0.46-0.23,0.8c0,0.16,0.02,0.31,0.06,0.45
		c0.04,0.13,0.1,0.25,0.17,0.34c0.08,0.1,0.17,0.17,0.29,0.22c0.12,0.05,0.25,0.08,0.4,0.08c0.08,0,0.15,0,0.21,0
		s0.11-0.01,0.16-0.02v-1.16h0.75v1.65c-0.09,0.04-0.23,0.07-0.43,0.11s-0.44,0.06-0.74,0.06c-0.25,0-0.48-0.04-0.68-0.12
		s-0.38-0.19-0.52-0.34c-0.14-0.15-0.26-0.33-0.33-0.54c-0.08-0.21-0.12-0.46-0.12-0.74c0-0.28,0.04-0.53,0.13-0.74
		c0.09-0.21,0.21-0.4,0.36-0.55c0.15-0.15,0.33-0.26,0.53-0.34c0.2-0.08,0.42-0.12,0.65-0.12c0.16,0,0.3,0.01,0.43,0.03
		c0.13,0.02,0.24,0.04,0.33,0.07c0.09,0.03,0.17,0.05,0.23,0.08c0.06,0.03,0.1,0.05,0.13,0.07l-0.22,0.6
		c-0.1-0.05-0.22-0.1-0.35-0.14C88.11,55.91,87.96,55.89,87.8,55.89z"/>
	<path class="st0" d="M91.79,58.65c-0.21-0.38-0.45-0.76-0.7-1.13s-0.52-0.72-0.8-1.05v2.18h-0.74v-3.33h0.61
		c0.11,0.11,0.22,0.24,0.35,0.39c0.13,0.15,0.26,0.32,0.39,0.49s0.27,0.36,0.4,0.54c0.13,0.19,0.25,0.37,0.37,0.54v-1.97h0.75v3.33
		H91.79z"/>
	<path class="st0" d="M94.35,58.65v-3.33h2.23v0.63H95.1v0.7h1.32v0.63H95.1v1.38H94.35z"/>
	<path class="st0" d="M99.12,58.65c-0.04-0.12-0.08-0.24-0.12-0.36c-0.04-0.12-0.08-0.24-0.13-0.36h-1.3
		c-0.04,0.12-0.08,0.24-0.13,0.37c-0.04,0.12-0.08,0.24-0.12,0.36h-0.78c0.13-0.36,0.25-0.69,0.36-1s0.22-0.59,0.33-0.86
		c0.11-0.27,0.21-0.53,0.32-0.77s0.21-0.48,0.33-0.71h0.71c0.11,0.23,0.22,0.47,0.32,0.71c0.11,0.24,0.21,0.5,0.32,0.77
		c0.11,0.27,0.22,0.56,0.33,0.86c0.11,0.3,0.23,0.64,0.36,1H99.12z M98.21,56.07c-0.02,0.05-0.04,0.11-0.07,0.2
		c-0.03,0.08-0.07,0.18-0.11,0.29c-0.04,0.11-0.09,0.23-0.14,0.36c-0.05,0.13-0.1,0.27-0.16,0.41h0.95
		c-0.05-0.14-0.1-0.28-0.15-0.41c-0.05-0.13-0.09-0.25-0.14-0.36s-0.08-0.21-0.11-0.29C98.26,56.18,98.23,56.12,98.21,56.07z"/>
	<path class="st0" d="M101.75,58.72c-0.54,0-0.96-0.15-1.24-0.45c-0.28-0.3-0.43-0.73-0.43-1.29c0-0.28,0.04-0.52,0.13-0.74
		c0.09-0.22,0.21-0.4,0.36-0.55c0.15-0.15,0.33-0.26,0.54-0.34c0.21-0.08,0.43-0.12,0.68-0.12c0.14,0,0.27,0.01,0.38,0.03
		c0.12,0.02,0.22,0.04,0.3,0.07s0.16,0.05,0.22,0.08c0.06,0.03,0.1,0.05,0.12,0.07l-0.22,0.61c-0.1-0.05-0.22-0.1-0.36-0.14
		c-0.14-0.04-0.29-0.06-0.46-0.06c-0.12,0-0.23,0.02-0.34,0.06c-0.11,0.04-0.21,0.1-0.29,0.18s-0.15,0.2-0.21,0.33
		c-0.05,0.13-0.08,0.3-0.08,0.49c0,0.15,0.02,0.3,0.05,0.43c0.03,0.13,0.09,0.25,0.16,0.34c0.08,0.1,0.17,0.17,0.3,0.23
		c0.12,0.06,0.27,0.08,0.44,0.08c0.11,0,0.21-0.01,0.29-0.02c0.09-0.01,0.16-0.03,0.23-0.04c0.07-0.02,0.13-0.04,0.18-0.06
		c0.05-0.02,0.1-0.04,0.14-0.06l0.21,0.6c-0.11,0.06-0.25,0.12-0.45,0.17C102.22,58.69,102,58.72,101.75,58.72z"/>
	<path class="st0" d="M105.92,55.31v0.64h-1.01v2.69h-0.75v-2.69h-1v-0.64H105.92z"/>
	<path class="st0" d="M109.46,56.98c0,0.29-0.04,0.54-0.13,0.75c-0.09,0.22-0.2,0.4-0.35,0.54c-0.15,0.15-0.32,0.26-0.53,0.33
		c-0.2,0.07-0.42,0.11-0.66,0.11c-0.23,0-0.44-0.04-0.64-0.11c-0.2-0.07-0.38-0.18-0.53-0.33c-0.15-0.15-0.27-0.33-0.36-0.54
		c-0.09-0.22-0.13-0.47-0.13-0.75c0-0.29,0.04-0.54,0.13-0.75s0.21-0.4,0.36-0.55s0.33-0.26,0.53-0.33c0.2-0.07,0.41-0.11,0.63-0.11
		c0.23,0,0.44,0.04,0.64,0.11c0.2,0.07,0.38,0.18,0.53,0.33c0.15,0.15,0.27,0.33,0.36,0.55S109.46,56.69,109.46,56.98z
		 M106.92,56.98c0,0.16,0.02,0.31,0.06,0.44c0.04,0.13,0.1,0.24,0.17,0.34c0.08,0.09,0.17,0.17,0.28,0.22
		c0.11,0.05,0.23,0.08,0.38,0.08c0.14,0,0.26-0.03,0.37-0.08c0.11-0.05,0.2-0.12,0.28-0.22s0.13-0.21,0.17-0.34
		c0.04-0.13,0.06-0.28,0.06-0.44c0-0.16-0.02-0.31-0.06-0.44c-0.04-0.13-0.1-0.25-0.17-0.34s-0.17-0.17-0.28-0.22
		c-0.11-0.05-0.24-0.08-0.37-0.08c-0.14,0-0.27,0.03-0.38,0.08s-0.2,0.13-0.28,0.22c-0.08,0.09-0.13,0.21-0.17,0.34
		C106.94,56.67,106.92,56.82,106.92,56.98z"/>
	<path class="st0" d="M111.07,55.28c0.5,0,0.88,0.09,1.15,0.27c0.27,0.18,0.4,0.45,0.4,0.83c0,0.23-0.05,0.42-0.16,0.57
		c-0.11,0.15-0.26,0.26-0.46,0.34c0.07,0.08,0.14,0.18,0.21,0.29c0.07,0.11,0.15,0.22,0.22,0.34s0.14,0.24,0.21,0.37
		s0.13,0.25,0.19,0.37h-0.84c-0.06-0.11-0.12-0.22-0.19-0.33s-0.13-0.22-0.19-0.33c-0.07-0.11-0.13-0.21-0.2-0.3
		s-0.13-0.18-0.19-0.26h-0.37v1.22h-0.75v-3.29c0.16-0.03,0.33-0.05,0.51-0.07S110.93,55.28,111.07,55.28z M111.11,55.92
		c-0.05,0-0.1,0-0.15,0c-0.04,0-0.08,0.01-0.12,0.01v0.9h0.21c0.28,0,0.48-0.04,0.61-0.11c0.12-0.07,0.18-0.19,0.18-0.36
		c0-0.16-0.06-0.28-0.19-0.35C111.53,55.95,111.35,55.92,111.11,55.92z"/>
	<path class="st0" d="M114.36,56.68c0.13-0.23,0.26-0.45,0.38-0.68c0.12-0.23,0.23-0.46,0.34-0.69h0.83
		c-0.18,0.36-0.37,0.71-0.57,1.04c-0.2,0.34-0.4,0.67-0.62,1.01v1.28h-0.75v-1.27c-0.22-0.34-0.43-0.68-0.62-1.02
		c-0.2-0.34-0.39-0.69-0.57-1.05h0.87c0.1,0.23,0.21,0.46,0.33,0.69C114.1,56.23,114.23,56.46,114.36,56.68z"/>
	<path class="st0" d="M118.36,55.31c0.06,0.11,0.12,0.24,0.2,0.39c0.08,0.16,0.15,0.32,0.24,0.5c0.08,0.18,0.16,0.37,0.24,0.56
		c0.08,0.19,0.16,0.37,0.23,0.53c0.07-0.17,0.15-0.34,0.23-0.53c0.08-0.19,0.16-0.37,0.24-0.56c0.08-0.18,0.16-0.35,0.24-0.5
		c0.08-0.16,0.14-0.29,0.2-0.39h0.68c0.03,0.22,0.06,0.47,0.09,0.74s0.05,0.56,0.07,0.86s0.04,0.59,0.06,0.89
		c0.02,0.3,0.03,0.58,0.05,0.84h-0.73c-0.01-0.32-0.02-0.68-0.04-1.06c-0.02-0.38-0.04-0.77-0.07-1.15
		c-0.06,0.13-0.12,0.28-0.19,0.45c-0.07,0.16-0.14,0.33-0.21,0.49c-0.07,0.16-0.14,0.32-0.2,0.47c-0.06,0.15-0.12,0.28-0.16,0.38
		h-0.52c-0.04-0.11-0.1-0.23-0.16-0.38c-0.06-0.15-0.13-0.31-0.2-0.47c-0.07-0.16-0.14-0.33-0.21-0.49
		c-0.07-0.16-0.14-0.31-0.19-0.45c-0.03,0.39-0.06,0.77-0.07,1.15s-0.03,0.73-0.04,1.06h-0.73c0.01-0.26,0.03-0.54,0.04-0.84
		c0.02-0.3,0.04-0.6,0.06-0.89c0.02-0.3,0.04-0.58,0.07-0.86c0.03-0.27,0.06-0.52,0.09-0.74H118.36z"/>
	<path class="st0" d="M124.03,58.65c-0.04-0.12-0.08-0.24-0.12-0.36c-0.04-0.12-0.08-0.24-0.13-0.36h-1.3
		c-0.04,0.12-0.08,0.24-0.13,0.37c-0.04,0.12-0.08,0.24-0.12,0.36h-0.78c0.13-0.36,0.25-0.69,0.36-1s0.22-0.59,0.33-0.86
		c0.11-0.27,0.21-0.53,0.32-0.77s0.21-0.48,0.33-0.71h0.71c0.11,0.23,0.22,0.47,0.32,0.71c0.11,0.24,0.21,0.5,0.32,0.77
		c0.11,0.27,0.22,0.56,0.33,0.86c0.11,0.3,0.23,0.64,0.36,1H124.03z M123.13,56.07c-0.02,0.05-0.04,0.11-0.07,0.2
		c-0.03,0.08-0.07,0.18-0.11,0.29c-0.04,0.11-0.09,0.23-0.14,0.36c-0.05,0.13-0.1,0.27-0.16,0.41h0.95
		c-0.05-0.14-0.1-0.28-0.15-0.41c-0.05-0.13-0.09-0.25-0.14-0.36s-0.08-0.21-0.11-0.29C123.17,56.18,123.15,56.12,123.13,56.07z"/>
	<path class="st0" d="M127.5,58.65c-0.21-0.38-0.45-0.76-0.7-1.13s-0.52-0.72-0.8-1.05v2.18h-0.74v-3.33h0.61
		c0.11,0.11,0.22,0.24,0.35,0.39c0.13,0.15,0.26,0.32,0.39,0.49s0.27,0.36,0.4,0.54c0.13,0.19,0.25,0.37,0.37,0.54v-1.97h0.75v3.33
		H127.5z"/>
	<path class="st0" d="M131.14,58.65c-0.21-0.38-0.45-0.76-0.7-1.13s-0.52-0.72-0.8-1.05v2.18h-0.74v-3.33h0.61
		c0.11,0.11,0.22,0.24,0.35,0.39c0.13,0.15,0.26,0.32,0.39,0.49s0.27,0.36,0.4,0.54c0.13,0.19,0.25,0.37,0.37,0.54v-1.97h0.75v3.33
		H131.14z"/>
	<path class="st0" d="M134.55,55.31h0.75v3.33h-0.75v-1.42h-1.26v1.42h-0.75v-3.33h0.75v1.28h1.26V55.31z"/>
	<path class="st0" d="M136.07,58.65v-3.33h2.25v0.63h-1.5v0.65h1.33v0.62h-1.33v0.8h1.61v0.63H136.07z"/>
	<path class="st0" d="M138.98,55.31h0.75v3.33h-0.75V55.31z"/>
	<path class="st0" d="M141.39,55.31c0.06,0.11,0.12,0.24,0.2,0.39c0.08,0.16,0.15,0.32,0.24,0.5c0.08,0.18,0.16,0.37,0.24,0.56
		c0.08,0.19,0.16,0.37,0.23,0.53c0.07-0.17,0.15-0.34,0.23-0.53c0.08-0.19,0.16-0.37,0.24-0.56c0.08-0.18,0.16-0.35,0.24-0.5
		c0.08-0.16,0.14-0.29,0.2-0.39h0.68c0.03,0.22,0.06,0.47,0.09,0.74s0.05,0.56,0.07,0.86s0.04,0.59,0.06,0.89
		c0.02,0.3,0.03,0.58,0.05,0.84h-0.73c-0.01-0.32-0.02-0.68-0.04-1.06c-0.02-0.38-0.04-0.77-0.07-1.15
		c-0.06,0.13-0.12,0.28-0.19,0.45c-0.07,0.16-0.14,0.33-0.21,0.49c-0.07,0.16-0.14,0.32-0.2,0.47c-0.06,0.15-0.12,0.28-0.16,0.38
		h-0.52c-0.04-0.11-0.1-0.23-0.16-0.38c-0.06-0.15-0.13-0.31-0.2-0.47c-0.07-0.16-0.14-0.33-0.21-0.49
		c-0.07-0.16-0.14-0.31-0.19-0.45c-0.03,0.39-0.06,0.77-0.07,1.15s-0.03,0.73-0.04,1.06h-0.73c0.01-0.26,0.03-0.54,0.04-0.84
		c0.02-0.3,0.04-0.6,0.06-0.89c0.02-0.3,0.04-0.58,0.07-0.86c0.03-0.27,0.06-0.52,0.09-0.74H141.39z"/>
</g>
</svg>
