<?xml version="1.0" encoding="utf-8"?>
<!-- Generator: Adobe Illustrator 24.0.1, SVG Export Plug-In . SVG Version: 6.00 Build 0)  -->
<svg version="1.1" id="Layer_1" xmlns="http://www.w3.org/2000/svg" xmlns:xlink="http://www.w3.org/1999/xlink" x="0px" y="0px"
	 viewBox="0 0 300 300" style="enable-background:new 0 0 300 300;" xml:space="preserve">
<style type="text/css">
	.st0{fill:none;stroke:#000000;stroke-width:0.5;stroke-miterlimit:10;}
	.st1{fill:#EB611C;}
</style>
<rect class="st0" width="299.65" height="299.65"/>
<g>
	<g>
		<path class="st1" d="M42.09,121.79v34.42H31.27v-34.42H42.09z"/>
		<path class="st1" d="M56.55,121.79l-0.18,3.17c0.76-1.26,1.69-2.21,2.8-2.84c1.1-0.63,2.37-0.95,3.81-0.95
			c1.8,0,3.28,0.42,4.42,1.27c1.14,0.85,1.88,1.92,2.21,3.2c0.33,1.29,0.49,3.44,0.49,6.45v24.12H59.6v-23.83
			c0-2.37-0.08-3.81-0.23-4.33c-0.16-0.52-0.59-0.78-1.3-0.78c-0.75,0-1.21,0.3-1.4,0.89c-0.19,0.6-0.29,2.19-0.29,4.79v23.26H45.86
			v-34.42H56.55z"/>
		<path class="st1" d="M84.41,121.79l-0.18,3.17c0.76-1.26,1.69-2.21,2.8-2.84c1.1-0.63,2.37-0.95,3.81-0.95
			c1.8,0,3.28,0.42,4.42,1.27c1.14,0.85,1.88,1.92,2.21,3.2c0.33,1.29,0.49,3.44,0.49,6.45v24.12H87.45v-23.83
			c0-2.37-0.08-3.81-0.23-4.33c-0.16-0.52-0.59-0.78-1.3-0.78c-0.75,0-1.21,0.3-1.4,0.89c-0.19,0.6-0.29,2.19-0.29,4.79v23.26H73.72
			v-34.42H84.41z"/>
		<path class="st1" d="M125.35,133.88v8.43c0,3.1-0.16,5.36-0.47,6.81c-0.31,1.44-0.98,2.79-2,4.05c-1.02,1.25-2.34,2.18-3.94,2.78
			c-1.6,0.6-3.45,0.89-5.53,0.89c-2.32,0-4.29-0.26-5.9-0.77c-1.61-0.51-2.87-1.28-3.76-2.31c-0.89-1.03-1.53-2.27-1.91-3.73
			c-0.38-1.46-0.57-3.65-0.57-6.57v-8.82c0-3.2,0.35-5.7,1.04-7.5c0.69-1.8,1.94-3.24,3.75-4.33c1.8-1.09,4.11-1.63,6.92-1.63
			c2.36,0,4.38,0.35,6.07,1.05c1.69,0.7,2.99,1.61,3.91,2.74c0.92,1.12,1.55,2.28,1.89,3.48
			C125.18,129.63,125.35,131.44,125.35,133.88z M114.84,131.29c0-1.76-0.1-2.87-0.29-3.33c-0.19-0.46-0.6-0.69-1.22-0.69
			c-0.62,0-1.04,0.23-1.25,0.69c-0.21,0.46-0.31,1.57-0.31,3.33v15.54c0,1.63,0.1,2.68,0.31,3.18c0.21,0.49,0.62,0.74,1.22,0.74
			c0.62,0,1.04-0.22,1.24-0.67c0.2-0.45,0.3-1.42,0.3-2.9V131.29z"/>
		<path class="st1" d="M135.8,160.67v8.56h-7.93v-8.56H135.8z"/>
		<path class="st1" d="M160.09,132.79h-9.31v-1.87c0-1.59-0.09-2.6-0.27-3.02c-0.18-0.42-0.64-0.64-1.37-0.64
			c-0.59,0-1.03,0.19-1.33,0.58c-0.3,0.39-0.44,0.97-0.44,1.75c0,1.05,0.07,1.83,0.22,2.32c0.15,0.49,0.59,1.03,1.33,1.62
			c0.74,0.59,2.25,1.44,4.54,2.57c3.05,1.49,5.05,2.89,6.01,4.2c0.95,1.31,1.43,3.23,1.43,5.73c0,2.8-0.36,4.91-1.09,6.34
			c-0.73,1.43-1.95,2.52-3.65,3.29c-1.71,0.77-3.77,1.15-6.18,1.15c-2.67,0-4.95-0.41-6.85-1.24c-1.9-0.83-3.2-1.95-3.91-3.37
			c-0.71-1.42-1.07-3.56-1.07-6.43v-1.66h9.31v2.18c0,1.85,0.12,3.05,0.35,3.61c0.23,0.55,0.7,0.83,1.39,0.83
			c0.75,0,1.27-0.19,1.56-0.56c0.29-0.37,0.44-1.15,0.44-2.35c0-1.64-0.19-2.67-0.57-3.09c-0.4-0.41-2.44-1.64-6.11-3.68
			c-3.09-1.73-4.97-3.3-5.64-4.71c-0.68-1.41-1.01-3.08-1.01-5.02c0-2.75,0.36-4.78,1.09-6.08c0.73-1.31,1.96-2.31,3.71-3.02
			c1.74-0.71,3.77-1.06,6.07-1.06c2.29,0,4.23,0.29,5.84,0.87c1.6,0.58,2.83,1.34,3.69,2.3c0.86,0.95,1.38,1.83,1.56,2.65
			c0.18,0.81,0.27,2.08,0.27,3.81V132.79z"/>
		<path class="st1" d="M174.4,121.79l-0.18,3.04c0.94-1.23,1.97-2.15,3.1-2.75c1.13-0.61,2.36-0.91,3.69-0.91
			c1.63,0,3.04,0.44,4.23,1.31c1.19,0.87,1.93,1.88,2.22,3.02c0.29,1.14,0.44,3.08,0.44,5.81v14.5c0,3.13-0.19,5.36-0.56,6.68
			c-0.37,1.32-1.14,2.38-2.29,3.16c-1.15,0.79-2.54,1.18-4.18,1.18c-1.3,0-2.51-0.3-3.61-0.91c-1.11-0.61-2.12-1.51-3.04-2.7v7.89
			h-10.51v-39.32H174.4z M177.39,131.81c0-2.13-0.08-3.41-0.23-3.86c-0.16-0.45-0.59-0.67-1.3-0.67c-0.69,0-1.14,0.26-1.34,0.78
			c-0.2,0.52-0.3,1.77-0.3,3.76v14.26c0,2.07,0.1,3.37,0.31,3.89c0.21,0.52,0.66,0.78,1.35,0.78c0.68,0,1.1-0.24,1.26-0.71
			c0.16-0.48,0.25-1.63,0.25-3.46V131.81z"/>
		<path class="st1" d="M200.74,135.13h-9.86v-2.31c0-2.66,0.31-4.72,0.92-6.16c0.62-1.44,1.85-2.72,3.71-3.83
			c1.85-1.11,4.27-1.66,7.23-1.66c3.55,0,6.23,0.63,8.04,1.88c1.8,1.25,2.89,2.79,3.25,4.62c0.36,1.82,0.54,5.58,0.54,11.27v17.27
			h-10.22v-3.07c-0.64,1.23-1.47,2.15-2.48,2.77c-1.01,0.61-2.22,0.92-3.63,0.92c-1.84,0-3.52-0.51-5.06-1.54
			c-1.53-1.03-2.3-3.28-2.3-6.76v-2.83c0-2.58,0.41-4.33,1.22-5.26c0.82-0.93,2.84-2.02,6.06-3.27c3.45-1.35,5.3-2.26,5.54-2.72
			c0.24-0.47,0.36-1.42,0.36-2.85c0-1.8-0.13-2.97-0.4-3.51c-0.27-0.54-0.71-0.82-1.34-0.82c-0.71,0-1.15,0.23-1.33,0.69
			c-0.17,0.46-0.26,1.65-0.26,3.57V135.13z M204.07,139.85c-1.68,1.23-2.66,2.26-2.93,3.09c-0.27,0.83-0.4,2.02-0.4,3.58
			c0,1.78,0.12,2.93,0.35,3.45c0.23,0.52,0.7,0.78,1.39,0.78c0.66,0,1.09-0.2,1.29-0.61c0.2-0.41,0.3-1.47,0.3-3.2V139.85z"/>
		<path class="st1" d="M241.42,134.79h-9.91v-3.97c0-1.38-0.11-2.32-0.34-2.81c-0.22-0.49-0.64-0.74-1.25-0.74
			c-0.61,0-1.01,0.22-1.22,0.65c-0.21,0.43-0.31,1.4-0.31,2.9v16.24c0,1.23,0.16,2.15,0.47,2.76c0.31,0.61,0.77,0.92,1.38,0.92
			c0.71,0,1.19-0.32,1.44-0.96c0.25-0.64,0.38-1.85,0.38-3.63v-4.1h9.36c-0.02,2.75-0.12,4.81-0.3,6.19
			c-0.18,1.37-0.76,2.78-1.74,4.23c-0.98,1.44-2.26,2.53-3.84,3.27c-1.58,0.73-3.53,1.1-5.85,1.1c-2.96,0-5.31-0.51-7.05-1.52
			c-1.73-1.01-2.96-2.43-3.68-4.25c-0.72-1.82-1.08-4.41-1.08-7.77v-9.78c0-2.92,0.29-5.13,0.88-6.61c0.59-1.49,1.85-2.81,3.77-3.98
			c1.92-1.17,4.27-1.75,7.02-1.75c2.74,0,5.08,0.58,7.02,1.74c1.94,1.16,3.23,2.62,3.88,4.38
			C241.1,129.06,241.42,131.56,241.42,134.79z"/>
		<path class="st1" d="M268.34,139.61h-13.6v7.44c0,1.56,0.11,2.56,0.34,3.01c0.22,0.45,0.66,0.67,1.3,0.67c0.8,0,1.33-0.3,1.6-0.89
			c0.27-0.6,0.4-1.75,0.4-3.46v-4.54h9.96v2.54c0,2.13-0.13,3.76-0.4,4.9c-0.27,1.14-0.9,2.36-1.88,3.66
			c-0.99,1.3-2.24,2.27-3.76,2.92c-1.52,0.65-3.42,0.97-5.71,0.97c-2.22,0-4.18-0.32-5.88-0.96c-1.7-0.64-3.02-1.52-3.97-2.63
			c-0.95-1.12-1.6-2.34-1.96-3.68c-0.36-1.34-0.55-3.29-0.55-5.85v-10.04c0-3.01,0.41-5.38,1.22-7.12c0.81-1.74,2.15-3.07,4.01-3.99
			c1.85-0.92,3.99-1.39,6.4-1.39c2.95,0,5.38,0.56,7.29,1.67c1.92,1.12,3.26,2.59,4.03,4.44c0.77,1.84,1.16,4.43,1.16,7.77V139.61z
			 M257.8,134.01v-2.52c0-1.78-0.09-2.93-0.28-3.45c-0.19-0.52-0.58-0.78-1.17-0.78c-0.73,0-1.18,0.22-1.35,0.66
			c-0.17,0.44-0.26,1.63-0.26,3.57v2.52H257.8z"/>
	</g>
	<g>
		<path class="st1" d="M144.1,175.21c0,0.54-0.08,1.02-0.25,1.42c-0.17,0.4-0.41,0.74-0.72,1.01c-0.31,0.26-0.69,0.47-1.14,0.6
			c-0.45,0.13-0.95,0.2-1.51,0.2c-0.25,0-0.55-0.01-0.89-0.03c-0.34-0.02-0.67-0.06-1-0.13v-6.11c0.33-0.06,0.67-0.1,1.02-0.12
			c0.35-0.02,0.66-0.03,0.91-0.03c0.54,0,1.03,0.06,1.47,0.18c0.44,0.12,0.82,0.31,1.13,0.57c0.31,0.26,0.56,0.59,0.73,1
			C144.01,174.15,144.1,174.64,144.1,175.21z M140,177.2c0.07,0.01,0.14,0.01,0.23,0.01c0.09,0,0.19,0,0.31,0
			c0.71,0,1.23-0.18,1.58-0.53c0.34-0.35,0.51-0.85,0.51-1.48c0-0.66-0.16-1.16-0.49-1.49c-0.33-0.34-0.84-0.51-1.55-0.51
			c-0.1,0-0.2,0-0.3,0.01c-0.1,0-0.2,0.01-0.29,0.02V177.2z"/>
		<path class="st1" d="M145.28,178.35v-6.28h4.25v1.19h-2.83v1.23h2.52v1.16h-2.52v1.51h3.04v1.19H145.28z"/>
		<path class="st1" d="M152.5,177.27c0.2,0,0.37-0.02,0.5-0.05c0.13-0.03,0.23-0.08,0.31-0.14c0.08-0.06,0.13-0.12,0.16-0.2
			c0.03-0.08,0.04-0.17,0.04-0.26c0-0.21-0.1-0.38-0.29-0.51c-0.2-0.14-0.53-0.28-1-0.44c-0.21-0.07-0.41-0.16-0.62-0.25
			c-0.21-0.09-0.39-0.21-0.55-0.35c-0.16-0.14-0.3-0.31-0.4-0.52c-0.1-0.2-0.15-0.45-0.15-0.74c0-0.29,0.06-0.55,0.16-0.78
			c0.11-0.23,0.26-0.43,0.46-0.59c0.2-0.16,0.44-0.29,0.73-0.38c0.28-0.09,0.6-0.13,0.96-0.13c0.42,0,0.79,0.04,1.1,0.14
			c0.31,0.09,0.56,0.19,0.76,0.3l-0.41,1.11c-0.18-0.09-0.37-0.17-0.59-0.24c-0.21-0.07-0.47-0.1-0.78-0.1
			c-0.34,0-0.58,0.05-0.73,0.14c-0.15,0.09-0.22,0.24-0.22,0.43c0,0.12,0.03,0.21,0.08,0.29c0.06,0.08,0.13,0.15,0.23,0.21
			c0.1,0.06,0.21,0.12,0.34,0.17c0.13,0.05,0.27,0.1,0.43,0.16c0.33,0.12,0.61,0.24,0.85,0.36c0.24,0.12,0.44,0.26,0.6,0.41
			c0.16,0.16,0.28,0.34,0.36,0.55c0.08,0.21,0.12,0.47,0.12,0.77c0,0.58-0.21,1.04-0.62,1.36c-0.41,0.32-1.03,0.49-1.86,0.49
			c-0.28,0-0.53-0.02-0.75-0.05c-0.22-0.03-0.42-0.07-0.59-0.12c-0.17-0.05-0.32-0.1-0.45-0.15c-0.12-0.06-0.23-0.11-0.31-0.15
			l0.4-1.12c0.19,0.1,0.42,0.19,0.69,0.28C151.76,177.23,152.1,177.27,152.5,177.27z"/>
		<path class="st1" d="M156.07,172.07h1.42v6.28h-1.42V172.07z"/>
		<path class="st1" d="M162.01,173.16c-0.66,0-1.14,0.18-1.43,0.55c-0.29,0.37-0.44,0.86-0.44,1.5c0,0.31,0.04,0.59,0.11,0.84
			c0.07,0.25,0.18,0.47,0.33,0.65c0.15,0.18,0.33,0.32,0.55,0.42c0.22,0.1,0.47,0.15,0.76,0.15c0.16,0,0.29,0,0.4-0.01
			c0.11-0.01,0.21-0.02,0.29-0.04v-2.18H164v3.11c-0.17,0.07-0.44,0.14-0.82,0.21c-0.38,0.08-0.84,0.11-1.39,0.11
			c-0.47,0-0.9-0.07-1.28-0.22c-0.39-0.15-0.71-0.36-0.98-0.63c-0.27-0.28-0.48-0.62-0.63-1.02c-0.15-0.4-0.22-0.87-0.22-1.39
			c0-0.53,0.08-0.99,0.25-1.4c0.16-0.4,0.39-0.75,0.67-1.03c0.28-0.28,0.62-0.49,1-0.64c0.39-0.15,0.8-0.22,1.23-0.22
			c0.3,0,0.56,0.02,0.8,0.06c0.24,0.04,0.45,0.08,0.62,0.14c0.17,0.05,0.32,0.1,0.43,0.16c0.11,0.05,0.19,0.1,0.24,0.13l-0.41,1.13
			c-0.2-0.1-0.42-0.19-0.67-0.27C162.58,173.2,162.3,173.16,162.01,173.16z"/>
		<path class="st1" d="M169.53,178.35c-0.41-0.72-0.84-1.43-1.32-2.13c-0.47-0.7-0.98-1.36-1.51-1.98v4.11h-1.4v-6.28h1.15
			c0.2,0.2,0.42,0.44,0.66,0.74c0.24,0.29,0.49,0.6,0.74,0.93c0.25,0.33,0.5,0.67,0.75,1.02c0.25,0.35,0.48,0.69,0.7,1.02v-3.71
			h1.41v6.28H169.53z"/>
		<path class="st1" d="M174.36,178.35v-6.28h4.21v1.19h-2.8v1.31h2.49v1.19h-2.49v2.59H174.36z"/>
		<path class="st1" d="M183.36,178.35c-0.07-0.22-0.15-0.44-0.23-0.67c-0.08-0.23-0.16-0.46-0.24-0.69h-2.46
			c-0.08,0.23-0.16,0.46-0.24,0.69c-0.08,0.23-0.15,0.45-0.22,0.67h-1.47c0.24-0.68,0.46-1.3,0.67-1.88s0.42-1.11,0.62-1.62
			c0.2-0.51,0.41-0.99,0.6-1.44s0.4-0.9,0.61-1.34h1.34c0.21,0.44,0.41,0.88,0.61,1.34c0.2,0.46,0.4,0.94,0.61,1.44
			c0.2,0.51,0.41,1.05,0.62,1.62c0.21,0.57,0.44,1.2,0.67,1.88H183.36z M181.66,173.5c-0.03,0.09-0.08,0.22-0.14,0.37
			c-0.06,0.16-0.13,0.34-0.21,0.54c-0.08,0.21-0.16,0.43-0.26,0.68c-0.1,0.25-0.19,0.51-0.29,0.78h1.8
			c-0.1-0.27-0.19-0.53-0.28-0.78c-0.09-0.25-0.18-0.48-0.26-0.68c-0.08-0.21-0.15-0.39-0.21-0.54
			C181.75,173.71,181.7,173.59,181.66,173.5z"/>
		<path class="st1" d="M188.33,178.48c-1.02,0-1.8-0.28-2.34-0.85c-0.53-0.57-0.8-1.37-0.8-2.42c0-0.52,0.08-0.98,0.25-1.39
			c0.16-0.41,0.39-0.75,0.67-1.03c0.28-0.28,0.62-0.49,1.02-0.64c0.39-0.15,0.82-0.22,1.28-0.22c0.27,0,0.51,0.02,0.73,0.06
			c0.22,0.04,0.41,0.08,0.57,0.14s0.3,0.1,0.41,0.16c0.11,0.05,0.19,0.1,0.24,0.13l-0.41,1.14c-0.19-0.1-0.42-0.19-0.68-0.26
			c-0.26-0.07-0.55-0.11-0.88-0.11c-0.22,0-0.43,0.03-0.64,0.11c-0.21,0.07-0.39,0.19-0.55,0.35c-0.16,0.16-0.29,0.37-0.39,0.62
			c-0.1,0.25-0.14,0.56-0.14,0.92c0,0.29,0.03,0.56,0.09,0.81c0.06,0.25,0.17,0.47,0.31,0.65c0.14,0.18,0.33,0.32,0.56,0.43
			c0.23,0.1,0.51,0.16,0.84,0.16c0.21,0,0.39-0.01,0.55-0.04c0.16-0.02,0.31-0.05,0.44-0.08c0.13-0.03,0.24-0.07,0.34-0.11
			c0.1-0.04,0.18-0.08,0.26-0.12l0.39,1.13c-0.2,0.12-0.48,0.23-0.84,0.33C189.23,178.43,188.81,178.48,188.33,178.48z"/>
		<path class="st1" d="M196.2,172.07v1.21h-1.9v5.07h-1.42v-5.07h-1.9v-1.21H196.2z"/>
		<path class="st1" d="M202.9,175.21c0,0.54-0.08,1.01-0.24,1.42c-0.16,0.41-0.38,0.75-0.66,1.02c-0.28,0.28-0.61,0.48-0.99,0.62
			c-0.39,0.14-0.8,0.21-1.24,0.21c-0.43,0-0.84-0.07-1.22-0.21c-0.38-0.14-0.72-0.35-1-0.62c-0.28-0.27-0.51-0.62-0.67-1.02
			c-0.16-0.41-0.25-0.88-0.25-1.42c0-0.54,0.08-1.01,0.25-1.42c0.17-0.41,0.4-0.75,0.69-1.03c0.29-0.28,0.62-0.49,1-0.63
			c0.38-0.14,0.78-0.21,1.19-0.21c0.43,0,0.84,0.07,1.22,0.21c0.38,0.14,0.72,0.35,1,0.63c0.29,0.28,0.51,0.62,0.67,1.03
			C202.82,174.2,202.9,174.67,202.9,175.21z M198.09,175.21c0,0.31,0.04,0.59,0.11,0.83c0.08,0.25,0.18,0.46,0.33,0.64
			c0.14,0.18,0.32,0.32,0.52,0.41c0.21,0.1,0.44,0.15,0.71,0.15c0.26,0,0.5-0.05,0.7-0.15c0.21-0.1,0.39-0.23,0.53-0.41
			c0.14-0.18,0.25-0.39,0.33-0.64c0.08-0.25,0.11-0.53,0.11-0.83c0-0.31-0.04-0.59-0.11-0.84c-0.08-0.25-0.18-0.47-0.33-0.64
			c-0.14-0.18-0.32-0.32-0.53-0.41c-0.21-0.1-0.44-0.14-0.7-0.14c-0.27,0-0.5,0.05-0.71,0.15c-0.21,0.1-0.38,0.24-0.52,0.42
			c-0.14,0.18-0.25,0.39-0.33,0.64C198.13,174.63,198.09,174.91,198.09,175.21z"/>
		<path class="st1" d="M205.92,172c0.95,0,1.67,0.17,2.17,0.5c0.5,0.33,0.75,0.85,0.75,1.56c0,0.44-0.1,0.8-0.3,1.07
			c-0.2,0.28-0.5,0.49-0.88,0.65c0.13,0.16,0.26,0.34,0.4,0.54c0.14,0.2,0.28,0.41,0.41,0.63s0.27,0.45,0.4,0.69
			c0.13,0.24,0.25,0.47,0.35,0.7h-1.58c-0.12-0.21-0.23-0.41-0.35-0.63c-0.12-0.21-0.24-0.42-0.36-0.62
			c-0.12-0.2-0.25-0.39-0.37-0.57c-0.12-0.18-0.24-0.34-0.36-0.49h-0.7v2.29h-1.42v-6.19c0.31-0.06,0.63-0.1,0.96-0.13
			C205.37,172.01,205.66,172,205.92,172z M206,173.21c-0.1,0-0.2,0-0.28,0.01c-0.08,0.01-0.16,0.01-0.23,0.02v1.7h0.4
			c0.53,0,0.91-0.07,1.14-0.2c0.23-0.13,0.35-0.36,0.35-0.68c0-0.31-0.12-0.53-0.35-0.66C206.8,173.27,206.46,173.21,206,173.21z"/>
		<path class="st1" d="M212.14,174.65c0.25-0.43,0.5-0.85,0.73-1.28c0.23-0.43,0.44-0.86,0.64-1.29h1.56
			c-0.34,0.68-0.7,1.33-1.07,1.97c-0.37,0.63-0.76,1.27-1.17,1.91v2.4h-1.42v-2.38c-0.41-0.64-0.8-1.28-1.18-1.92
			c-0.37-0.64-0.73-1.3-1.08-1.98h1.64c0.19,0.43,0.4,0.87,0.63,1.29C211.65,173.79,211.89,174.22,212.14,174.65z"/>
		<path class="st1" d="M219.69,172.07c0.11,0.2,0.23,0.45,0.38,0.74c0.14,0.29,0.29,0.61,0.45,0.95c0.15,0.34,0.31,0.69,0.46,1.05
			c0.15,0.36,0.29,0.69,0.43,1.01c0.13-0.31,0.27-0.65,0.43-1.01c0.15-0.35,0.3-0.7,0.46-1.05c0.15-0.34,0.3-0.66,0.45-0.95
			c0.14-0.29,0.27-0.54,0.38-0.74h1.29c0.06,0.42,0.12,0.88,0.17,1.4c0.05,0.52,0.1,1.05,0.14,1.61c0.04,0.56,0.08,1.12,0.11,1.68
			c0.03,0.56,0.06,1.09,0.09,1.58h-1.38c-0.02-0.61-0.04-1.27-0.07-1.99c-0.03-0.72-0.08-1.44-0.14-2.17
			c-0.11,0.25-0.23,0.53-0.37,0.84c-0.13,0.31-0.27,0.62-0.4,0.92c-0.13,0.31-0.26,0.6-0.38,0.88c-0.12,0.28-0.22,0.52-0.31,0.72
			h-0.99c-0.08-0.2-0.19-0.44-0.31-0.72c-0.12-0.28-0.25-0.58-0.38-0.88c-0.13-0.31-0.26-0.62-0.4-0.92
			c-0.13-0.31-0.26-0.59-0.37-0.84c-0.06,0.73-0.11,1.45-0.14,2.17c-0.03,0.72-0.06,1.38-0.07,1.99h-1.38
			c0.02-0.49,0.05-1.02,0.08-1.58c0.03-0.56,0.07-1.12,0.11-1.68c0.04-0.56,0.08-1.1,0.13-1.61c0.05-0.52,0.11-0.98,0.17-1.4H219.69
			z"/>
		<path class="st1" d="M230.39,178.35c-0.07-0.22-0.15-0.44-0.23-0.67c-0.08-0.23-0.16-0.46-0.24-0.69h-2.46
			c-0.08,0.23-0.16,0.46-0.24,0.69c-0.08,0.23-0.15,0.45-0.22,0.67h-1.47c0.24-0.68,0.46-1.3,0.67-1.88
			c0.21-0.57,0.42-1.11,0.62-1.62c0.2-0.51,0.41-0.99,0.6-1.44s0.4-0.9,0.61-1.34h1.34c0.21,0.44,0.41,0.88,0.61,1.34
			c0.2,0.46,0.4,0.94,0.61,1.44c0.2,0.51,0.41,1.05,0.62,1.62c0.21,0.57,0.44,1.2,0.67,1.88H230.39z M228.69,173.5
			c-0.03,0.09-0.08,0.22-0.14,0.37c-0.06,0.16-0.13,0.34-0.21,0.54c-0.08,0.21-0.16,0.43-0.26,0.68c-0.1,0.25-0.19,0.51-0.29,0.78
			h1.8c-0.1-0.27-0.19-0.53-0.28-0.78c-0.09-0.25-0.18-0.48-0.26-0.68c-0.08-0.21-0.15-0.39-0.21-0.54
			C228.78,173.71,228.73,173.59,228.69,173.5z"/>
		<path class="st1" d="M236.94,178.35c-0.41-0.72-0.84-1.43-1.32-2.13c-0.47-0.7-0.98-1.36-1.51-1.98v4.11h-1.4v-6.28h1.15
			c0.2,0.2,0.42,0.44,0.66,0.74c0.24,0.29,0.49,0.6,0.74,0.93c0.25,0.33,0.5,0.67,0.75,1.02c0.25,0.35,0.48,0.69,0.7,1.02v-3.71
			h1.41v6.28H236.94z"/>
		<path class="st1" d="M243.81,178.35c-0.41-0.72-0.84-1.43-1.32-2.13c-0.47-0.7-0.98-1.36-1.51-1.98v4.11h-1.4v-6.28h1.15
			c0.2,0.2,0.42,0.44,0.66,0.74c0.24,0.29,0.49,0.6,0.74,0.93c0.25,0.33,0.5,0.67,0.75,1.02c0.25,0.35,0.48,0.69,0.7,1.02v-3.71H245
			v6.28H243.81z"/>
		<path class="st1" d="M250.25,172.07h1.42v6.28h-1.42v-2.66h-2.38v2.66h-1.42v-6.28h1.42v2.4h2.38V172.07z"/>
		<path class="st1" d="M253.12,178.35v-6.28h4.25v1.19h-2.83v1.23h2.52v1.16h-2.52v1.51h3.04v1.19H253.12z"/>
		<path class="st1" d="M258.62,172.07h1.42v6.28h-1.42V172.07z"/>
		<path class="st1" d="M263.16,172.07c0.11,0.2,0.23,0.45,0.38,0.74c0.14,0.29,0.29,0.61,0.45,0.95c0.15,0.34,0.31,0.69,0.46,1.05
			c0.15,0.36,0.29,0.69,0.43,1.01c0.13-0.31,0.27-0.65,0.43-1.01c0.15-0.35,0.3-0.7,0.46-1.05c0.15-0.34,0.3-0.66,0.45-0.95
			c0.14-0.29,0.27-0.54,0.38-0.74h1.29c0.06,0.42,0.12,0.88,0.17,1.4c0.05,0.52,0.1,1.05,0.14,1.61c0.04,0.56,0.08,1.12,0.11,1.68
			c0.03,0.56,0.06,1.09,0.09,1.58H267c-0.02-0.61-0.04-1.27-0.07-1.99c-0.03-0.72-0.08-1.44-0.14-2.17
			c-0.11,0.25-0.23,0.53-0.36,0.84c-0.13,0.31-0.27,0.62-0.4,0.92c-0.13,0.31-0.26,0.6-0.38,0.88c-0.12,0.28-0.22,0.52-0.31,0.72
			h-0.99c-0.08-0.2-0.19-0.44-0.31-0.72c-0.12-0.28-0.25-0.58-0.38-0.88c-0.13-0.31-0.26-0.62-0.4-0.92
			c-0.13-0.31-0.26-0.59-0.36-0.84c-0.06,0.73-0.11,1.45-0.14,2.17c-0.03,0.72-0.06,1.38-0.07,1.99h-1.38
			c0.02-0.49,0.05-1.02,0.08-1.58c0.03-0.56,0.07-1.12,0.11-1.68c0.04-0.56,0.08-1.1,0.13-1.61c0.05-0.52,0.11-0.98,0.17-1.4H263.16
			z"/>
	</g>
</g>
</svg>
